<?xml version="1.0" encoding="utf-8"?>
<!-- Generator: Adobe Illustrator 16.0.0, SVG Export Plug-In . SVG Version: 6.00 Build 0)  -->
<!DOCTYPE svg PUBLIC "-//W3C//DTD SVG 1.1//EN" "http://www.w3.org/Graphics/SVG/1.1/DTD/svg11.dtd">
<svg version="1.1" id="Layer_1" xmlns="http://www.w3.org/2000/svg" xmlns:xlink="http://www.w3.org/1999/xlink" x="0px" y="0px"
	 width="300px" height="300px" viewBox="0 0 300 300" enable-background="new 0 0 300 300" xml:space="preserve">
<path fill="#FF9494" d="M295.479,52.431l-26.371-26.4c-3.667-3.655-9.6-3.655-13.269,0c-2.114,2.135-2.875,5.056-2.472,7.839
	c-1.985,0-3.918,0.771-5.627,2.016l-0.173-0.199l-68.345,68.318c0.664,6.001-0.787,12.128-4.26,17.336l7.189,7.277l0.17-0.174
	l0.687,0.707l-15.073,15.056l-49.516-49.458c5.572-19.911,0.539-42.187-15.108-57.861c-15.563-15.49-37.566-20.586-57.373-15.206
	l33.548,33.527l-8.813,32.849L37.798,96.86L4.282,63.326c-5.362,19.803-0.29,41.809,15.256,57.373
	c16.31,16.307,39.781,21.094,60.319,14.406l0.175,0.178l48.468,48.425l-46.098,46.09l-2.522-2.446l-12.909,10.417l-21.827,34.408
	l5.571,5.571l34.393-21.814l10.478-12.951l-2.491-2.471l46.098-46.091l78.804,78.814c5.452,5.456,12.634,8.208,19.766,8.208
	c7.172,0,14.289-2.752,19.783-8.208c10.893-10.864,10.893-28.553,0-39.52l-78.869-78.792l14.795-14.805l6.468,6.582
	c5.271-3.579,11.448-5.115,17.554-4.444l67.386-67.366l0.965-0.944l-0.201-0.2c1.272-1.694,1.999-3.626,1.999-5.589
	c2.798,0.375,5.689-0.366,7.821-2.519C299.131,62.017,299.131,56.091,295.479,52.431z M240.177,247.196
	c5.935,0,10.677,4.767,10.677,10.679c0,5.899-4.758,10.689-10.677,10.689c-5.867,0-10.654-4.811-10.654-10.689
	C229.522,251.963,234.31,247.196,240.177,247.196z M201.907,107.721l-4.417-4.413l50.642-50.63l4.396,4.409L201.907,107.721z
	 M218.399,124.244l-4.417-4.4l50.641-50.647l4.4,4.407L218.399,124.244z"/>
</svg>
