<?xml version="1.0" encoding="utf-8"?>
<!-- Generator: Adobe Illustrator 16.0.0, SVG Export Plug-In . SVG Version: 6.00 Build 0)  -->
<!DOCTYPE svg PUBLIC "-//W3C//DTD SVG 1.1//EN" "http://www.w3.org/Graphics/SVG/1.1/DTD/svg11.dtd">
<svg version="1.1" id="Layer_1" xmlns="http://www.w3.org/2000/svg" xmlns:xlink="http://www.w3.org/1999/xlink" x="0px" y="0px"
	 width="250px" height="250px" viewBox="25 -47 250 250" enable-background="new 25 -47 250 250" xml:space="preserve">
<g>
	<g>
		<g>
			<circle fill="#AFAFAF" cx="149.997" cy="77.959" r="23.028"/>
			<path fill="#AFAFAF" d="M149.997-44.5C82.345-44.5,27.5,10.348,27.5,77.998c0,67.65,54.845,122.502,122.497,122.502
				S272.5,145.65,272.5,77.998C272.5,10.345,217.648-44.5,149.997-44.5z M213.369,90.804l-17.399,1.119
				c-0.974,3.282-2.273,6.423-3.876,9.377l11.506,13.098l-18.168,18.166l-13.092-11.508c-2.954,1.603-6.095,2.9-9.377,3.873
				l-1.124,17.404l-25.691-0.003l-1.123-17.403c-3.278-0.971-6.419-2.27-9.374-3.873l-13.095,11.51l-18.165-18.172l11.505-13.092
				c-1.603-2.954-2.901-6.095-3.875-9.377L84.62,90.8V65.109l17.4-1.123c0.975-3.279,2.275-6.422,3.875-9.375L94.391,41.52
				l18.167-18.169l13.092,11.505c2.955-1.604,6.096-2.9,9.378-3.874l1.123-17.402h25.686l1.126,17.402
				c3.279,0.974,6.42,2.27,9.375,3.874l13.097-11.505L203.6,41.52l-11.506,13.092c1.602,2.955,2.902,6.096,3.878,9.375l17.397,1.123
				V90.804z"/>
		</g>
	</g>
</g>
</svg>
