<?xml version="1.0" encoding="utf-8"?>
<!-- Generator: Adobe Illustrator 16.0.0, SVG Export Plug-In . SVG Version: 6.00 Build 0)  -->
<!DOCTYPE svg PUBLIC "-//W3C//DTD SVG 1.1//EN" "http://www.w3.org/Graphics/SVG/1.1/DTD/svg11.dtd">
<svg version="1.1" id="Layer_1" xmlns="http://www.w3.org/2000/svg" xmlns:xlink="http://www.w3.org/1999/xlink" x="0px" y="0px"
	 width="150px" height="150px" viewBox="0 0 150 150" enable-background="new 0 0 150 150" xml:space="preserve">
<path fill="#AFAFAF" d="M128.285,59.239l-3.66-8.694c0,0,8.52-19.211,7.758-19.951l-11.27-11.006
	c-0.784-0.762-20.002,8.008-20.002,8.008l-8.867-3.586c0,0-7.832-19.472-8.909-19.472H67.424c-1.102,0-8.354,19.521-8.354,19.521
	l-8.852,3.585c0,0-19.625-8.335-20.378-7.595l-11.257,11.03c-0.778,0.751,8.18,19.581,8.18,19.581l-3.659,8.683
	c0,0-19.894,7.666-19.894,8.7v15.593c0,1.089,19.942,8.193,19.942,8.193l3.659,8.667c0,0-8.515,19.199-7.771,19.939l11.273,11.033
	c0.761,0.75,19.991-8.025,19.991-8.025l8.876,3.598c0,0,7.829,19.461,8.912,19.461H84c1.107,0,8.359-19.521,8.359-19.521l8.881-3.59
	c0,0,19.586,8.34,20.342,7.611l11.271-11.023c0.781-0.767-8.197-19.584-8.197-19.584l3.65-8.687c0,0,19.902-7.676,19.902-8.726V67.4
	C148.214,66.323,128.285,59.239,128.285,59.239z M98.96,75.512c0,12.541-10.429,22.758-23.244,22.758
	c-12.804,0-23.249-10.218-23.249-22.758c0-12.535,10.444-22.73,23.249-22.73C88.535,52.787,98.96,62.978,98.96,75.512z"/>
</svg>
