<?xml version="1.0" encoding="utf-8"?>
<!-- Generator: Adobe Illustrator 16.0.0, SVG Export Plug-In . SVG Version: 6.00 Build 0)  -->
<!DOCTYPE svg PUBLIC "-//W3C//DTD SVG 1.1//EN" "http://www.w3.org/Graphics/SVG/1.1/DTD/svg11.dtd">
<svg version="1.1" id="Layer_1" xmlns="http://www.w3.org/2000/svg" xmlns:xlink="http://www.w3.org/1999/xlink" x="0px" y="0px"
	 width="150px" height="150px" viewBox="0 0 150 150" enable-background="new 0 0 150 150" xml:space="preserve">
<path fill="#AFAFAF" d="M128.285,59.239l-3.66-8.694c0,0,8.52-19.211,7.758-19.951l-11.269-11.006
	c-0.785-0.762-20.002,8.008-20.002,8.008l-8.868-3.586c0,0-7.832-19.472-8.909-19.472H67.424c-1.102,0-8.354,19.521-8.354,19.521
	l-8.852,3.585c0,0-19.625-8.335-20.378-7.595L18.583,31.079c-0.778,0.751,8.18,19.581,8.18,19.581l-3.659,8.683
	c0,0-19.894,7.666-19.894,8.7v15.593c0,1.088,19.942,8.193,19.942,8.193l3.659,8.667c0,0-8.515,19.2-7.771,19.939l11.273,11.034
	c0.761,0.75,19.991-8.025,19.991-8.025l8.876,3.597c0,0,7.829,19.461,8.912,19.461h15.908c1.107,0,8.36-19.521,8.36-19.521
	l8.88-3.591c0,0,19.586,8.341,20.342,7.612l11.272-11.024c0.781-0.766-8.198-19.584-8.198-19.584l3.65-8.686
	c0,0,19.903-7.676,19.903-8.725V67.4C148.214,66.323,128.285,59.239,128.285,59.239z M98.96,75.512
	c0,12.541-10.429,22.758-23.244,22.758c-12.804,0-23.249-10.218-23.249-22.758c0-12.535,10.444-22.731,23.249-22.731
	C88.535,52.787,98.96,62.978,98.96,75.512z"/>
</svg>
