<?xml version="1.0" encoding="utf-8"?>
<!-- Generator: Adobe Illustrator 16.0.0, SVG Export Plug-In . SVG Version: 6.00 Build 0)  -->
<!DOCTYPE svg PUBLIC "-//W3C//DTD SVG 1.1//EN" "http://www.w3.org/Graphics/SVG/1.1/DTD/svg11.dtd">
<svg version="1.1" xmlns="http://www.w3.org/2000/svg" xmlns:xlink="http://www.w3.org/1999/xlink" x="0px" y="0px" width="1000px"
	 height="1100px" viewBox="0 0 1000 1100" enable-background="new 0 0 1000 1100" xml:space="preserve">
<g id="Background" display="none">
	<rect x="-0.5" y="50.5" display="inline" fill="#2C2A2A" stroke="#000000" stroke-miterlimit="10" width="1000" height="1000"/>
</g>
<g id="Thermo_Background">
	<g>
		<circle fill="#DDDDDD" stroke="#DDDDDD" stroke-miterlimit="10" cx="500" cy="882.525" r="150"/>
		<path fill="#DDDDDD" stroke="#DDDDDD" stroke-miterlimit="10" d="M424.5,130.525c0-41.421,33.578-75,75-75
			c41.421,0,75,33.579,75,75"/>
		<rect x="424.5" y="130.5" fill="#DDDDDD" stroke="#DDDDDD" stroke-miterlimit="10" width="150" height="686"/>
	</g>
	<path fill="#F9E1E1" stroke="#F9E1E1" stroke-miterlimit="10" d="M458.5,129.525c0-22.644,18.356-41,41-41
		c22.626,0,41,18.356,41,41"/>
	<path fill="#F9E1E1" stroke="#F9E1E1" stroke-miterlimit="10" d="M540.277,787.162c37.145,15.717,63.223,52.509,63.223,95.363
		c0,57.141-46.36,103.501-103.5,103.501c-57.154,0-103.5-46.36-103.5-103.501c0-42.385,25.501-78.839,61.998-94.839"/>
	<rect x="458.5" y="129.5" fill="#F9E1E1" stroke="#F9E1E1" stroke-miterlimit="10" width="82" height="658"/>
</g>
<g id="Thermo_Colored">
	<path id="_x30__1_" display="none" fill="#7DCEA0" stroke="#7DCEA0" stroke-miterlimit="10" d="M540.275,787.161
		c37.146,15.717,63.225,52.509,63.225,95.364c0,57.141-46.36,103.501-103.5,103.501c-57.154,0-103.5-46.36-103.5-103.501
		c0-42.385,25.501-78.839,61.998-94.839"/>
	
		<rect id="_x31_" x="458.5" y="780.5" display="none" fill="#7DCEA0" stroke="#7DCEA0" stroke-miterlimit="10" width="82" height="7"/>
	
		<rect id="_x32_" x="458.5" y="773.5" display="none" fill="#7DCEA0" stroke="#7DCEA0" stroke-miterlimit="10" width="82" height="7"/>
	
		<rect id="_x33_" x="458.5" y="766.5" display="none" fill="#7DCEA0" stroke="#7DCEA0" stroke-miterlimit="10" width="82" height="7"/>
	
		<rect id="_x34_" x="458.5" y="759.5" display="none" fill="#7DCEA0" stroke="#7DCEA0" stroke-miterlimit="10" width="82" height="7"/>
	
		<rect id="_x35_" x="458.5" y="752.5" display="none" fill="#7DCEA0" stroke="#7DCEA0" stroke-miterlimit="10" width="82" height="7"/>
	
		<rect id="_x36_" x="458.5" y="745.5" display="none" fill="#7DCEA0" stroke="#7DCEA0" stroke-miterlimit="10" width="82" height="7"/>
	
		<rect id="_x37_" x="458.5" y="738.5" display="none" fill="#7DCEA0" stroke="#7DCEA0" stroke-miterlimit="10" width="82" height="7"/>
	
		<rect id="_x38_" x="458.5" y="731.5" display="none" fill="#7DCEA0" stroke="#7DCEA0" stroke-miterlimit="10" width="82" height="7"/>
	
		<rect id="_x39_" x="458.5" y="724.5" display="none" fill="#7DCEA0" stroke="#7DCEA0" stroke-miterlimit="10" width="82" height="7"/>
	
		<rect id="_x31_0" x="458.5" y="717.5" display="none" fill="#7DCEA0" stroke="#7DCEA0" stroke-miterlimit="10" width="82" height="7"/>
	
		<rect id="_x31_1" x="458.5" y="710.5" display="none" fill="#7DCEA0" stroke="#7DCEA0" stroke-miterlimit="10" width="82" height="7"/>
	
		<rect id="_x31_2" x="458.5" y="703.5" display="none" fill="#7DCEA0" stroke="#7DCEA0" stroke-miterlimit="10" width="82" height="7"/>
	
		<rect id="_x31_3" x="458.5" y="696.5" display="none" fill="#7DCEA0" stroke="#7DCEA0" stroke-miterlimit="10" width="82" height="7"/>
	
		<rect id="_x31_4" x="458.5" y="689.5" display="none" fill="#7DCEA0" stroke="#7DCEA0" stroke-miterlimit="10" width="82" height="7"/>
	
		<rect id="_x31_5" x="458.5" y="682.5" display="none" fill="#7DCEA0" stroke="#7DCEA0" stroke-miterlimit="10" width="82" height="7"/>
	
		<rect id="_x31_6" x="458.5" y="675.5" display="none" fill="#7DCEA0" stroke="#7DCEA0" stroke-miterlimit="10" width="82" height="7"/>
	
		<rect id="_x31_7" x="458.5" y="668.5" display="none" fill="#7DCEA0" stroke="#7DCEA0" stroke-miterlimit="10" width="82" height="7"/>
	
		<rect id="_x31_8" x="458.5" y="661.5" display="none" fill="#7DCEA0" stroke="#7DCEA0" stroke-miterlimit="10" width="82" height="7"/>
	
		<rect id="_x31_9" x="458.5" y="654.5" display="none" fill="#7DCEA0" stroke="#7DCEA0" stroke-miterlimit="10" width="82" height="7"/>
	
		<rect id="_x32_0" x="458.5" y="647.5" display="none" fill="#7DCEA0" stroke="#7DCEA0" stroke-miterlimit="10" width="82" height="7"/>
	
		<rect id="_x32_1" x="458.5" y="641.5" display="none" fill="#7DCEA0" stroke="#7DCEA0" stroke-miterlimit="10" width="82" height="7"/>
	
		<rect id="_x32_2" x="458.5" y="634.5" display="none" fill="#7DCEA0" stroke="#7DCEA0" stroke-miterlimit="10" width="82" height="7"/>
	
		<rect id="_x32_3" x="458.5" y="627.5" display="none" fill="#7DCEA0" stroke="#7DCEA0" stroke-miterlimit="10" width="82" height="7"/>
	
		<rect id="_x32_4" x="458.5" y="620.5" display="none" fill="#7DCEA0" stroke="#7DCEA0" stroke-miterlimit="10" width="82" height="7"/>
	
		<rect id="_x32_5" x="458.5" y="613.5" display="none" fill="#7DCEA0" stroke="#7DCEA0" stroke-miterlimit="10" width="82" height="7"/>
	
		<rect id="_x32_6" x="458.5" y="606.5" display="none" fill="#7DCEA0" stroke="#7DCEA0" stroke-miterlimit="10" width="82" height="7"/>
	
		<rect id="_x32_7" x="458.5" y="599.5" display="none" fill="#7DCEA0" stroke="#7DCEA0" stroke-miterlimit="10" width="82" height="7"/>
	
		<rect id="_x32_8" x="458.5" y="592.5" display="none" fill="#7DCEA0" stroke="#7DCEA0" stroke-miterlimit="10" width="82" height="7"/>
	
		<rect id="_x32_9" x="458.5" y="585.5" display="none" fill="#7DCEA0" stroke="#7DCEA0" stroke-miterlimit="10" width="82" height="7"/>
	
		<rect id="_x33_0" x="458.5" y="578.5" display="none" fill="#7DCEA0" stroke="#7DCEA0" stroke-miterlimit="10" width="82" height="7"/>
	
		<rect id="_x33_1" x="458.5" y="571.5" display="none" fill="#7DCEA0" stroke="#7DCEA0" stroke-miterlimit="10" width="82" height="7"/>
	
		<rect id="_x33_2" x="458.5" y="564.5" display="none" fill="#7DCEA0" stroke="#7DCEA0" stroke-miterlimit="10" width="82" height="7"/>
	
		<rect id="_x33_3" x="458.5" y="557.5" display="none" fill="#7DCEA0" stroke="#7DCEA0" stroke-miterlimit="10" width="82" height="7"/>
	
		<rect id="_x33_4" x="458.5" y="550.5" display="none" fill="#7DCEA0" stroke="#7DCEA0" stroke-miterlimit="10" width="82" height="7"/>
	
		<rect id="_x33_5" x="458.5" y="543.5" display="none" fill="#7DCEA0" stroke="#7DCEA0" stroke-miterlimit="10" width="82" height="7"/>
	
		<rect id="_x33_6" x="458.5" y="536.5" display="none" fill="#7DCEA0" stroke="#7DCEA0" stroke-miterlimit="10" width="82" height="7"/>
	
		<rect id="_x33_7" x="458.5" y="529.5" display="none" fill="#7DCEA0" stroke="#7DCEA0" stroke-miterlimit="10" width="82" height="7"/>
	
		<rect id="_x33_8" x="458.5" y="522.5" display="none" fill="#7DCEA0" stroke="#7DCEA0" stroke-miterlimit="10" width="82" height="7"/>
	
		<rect id="_x33_9" x="458.5" y="515.5" display="none" fill="#7DCEA0" stroke="#7DCEA0" stroke-miterlimit="10" width="82" height="7"/>
	
		<rect id="_x34_0" x="458.5" y="508.5" display="none" fill="#7DCEA0" stroke="#7DCEA0" stroke-miterlimit="10" width="82" height="7"/>
	
		<rect id="_x34_1" x="458.5" y="501.5" display="none" fill="#7DCEA0" stroke="#7DCEA0" stroke-miterlimit="10" width="82" height="7"/>
	
		<rect id="_x34_2" x="458.5" y="494.5" display="none" fill="#7DCEA0" stroke="#7DCEA0" stroke-miterlimit="10" width="82" height="7"/>
	
		<rect id="_x34_3" x="458.5" y="487.5" display="none" fill="#7DCEA0" stroke="#7DCEA0" stroke-miterlimit="10" width="82" height="7"/>
	
		<rect id="_x34_4" x="458.5" y="480.5" display="none" fill="#7DCEA0" stroke="#7DCEA0" stroke-miterlimit="10" width="82" height="7"/>
	
		<rect id="_x34_5" x="458.5" y="473.5" display="none" fill="#7DCEA0" stroke="#7DCEA0" stroke-miterlimit="10" width="82" height="7"/>
	
		<rect id="_x34_6" x="458.5" y="466.5" display="none" fill="#7DCEA0" stroke="#7DCEA0" stroke-miterlimit="10" width="82" height="7"/>
	
		<rect id="_x34_7" x="458.5" y="459.5" display="none" fill="#7DCEA0" stroke="#7DCEA0" stroke-miterlimit="10" width="82" height="7"/>
	
		<rect id="_x34_8" x="458.5" y="452.5" display="none" fill="#7DCEA0" stroke="#7DCEA0" stroke-miterlimit="10" width="82" height="7"/>
	
		<rect id="_x34_9" x="458.5" y="445.5" display="none" fill="#7DCEA0" stroke="#7DCEA0" stroke-miterlimit="10" width="82" height="7"/>
	
		<rect id="_x35_0" x="458.5" y="438.5" display="none" fill="#7DCEA0" stroke="#7DCEA0" stroke-miterlimit="10" width="82" height="7"/>
	
		<rect id="_x35_1" x="458.5" y="431.5" display="none" fill="#7DCEA0" stroke="#7DCEA0" stroke-miterlimit="10" width="82" height="7"/>
	
		<rect id="_x35_2" x="458.5" y="424.5" display="none" fill="#7DCEA0" stroke="#7DCEA0" stroke-miterlimit="10" width="82" height="7"/>
	
		<rect id="_x35_3" x="458.5" y="417.5" display="none" fill="#7DCEA0" stroke="#7DCEA0" stroke-miterlimit="10" width="82" height="7"/>
	
		<rect id="_x35_4" x="458.5" y="410.5" display="none" fill="#7DCEA0" stroke="#7DCEA0" stroke-miterlimit="10" width="82" height="7"/>
	
		<rect id="_x35_5" x="458.5" y="403.5" display="none" fill="#7DCEA0" stroke="#7DCEA0" stroke-miterlimit="10" width="82" height="7"/>
	
		<rect id="_x35_6" x="458.5" y="396.5" display="none" fill="#7DCEA0" stroke="#7DCEA0" stroke-miterlimit="10" width="82" height="7"/>
	
		<rect id="_x35_7" x="458.5" y="389.5" display="none" fill="#7DCEA0" stroke="#7DCEA0" stroke-miterlimit="10" width="82" height="7"/>
	
		<rect id="_x35_8" x="458.5" y="382.5" display="none" fill="#7DCEA0" stroke="#7DCEA0" stroke-miterlimit="10" width="82" height="7"/>
	
		<rect id="_x35_9" x="458.5" y="375.5" display="none" fill="#7DCEA0" stroke="#7DCEA0" stroke-miterlimit="10" width="82" height="7"/>
	
		<rect id="_x36_0" x="458.5" y="368.5" display="none" fill="#7DCEA0" stroke="#7DCEA0" stroke-miterlimit="10" width="82" height="7"/>
	
		<rect id="_x36_1" x="458.5" y="361.5" display="none" fill="#7DCEA0" stroke="#7DCEA0" stroke-miterlimit="10" width="82" height="7"/>
	
		<rect id="_x36_2" x="458.5" y="354.5" display="none" fill="#7DCEA0" stroke="#7DCEA0" stroke-miterlimit="10" width="82" height="7"/>
	
		<rect id="_x36_3" x="458.5" y="347.5" display="none" fill="#7DCEA0" stroke="#7DCEA0" stroke-miterlimit="10" width="82" height="7"/>
	
		<rect id="_x36_4" x="458.5" y="340.5" display="none" fill="#7DCEA0" stroke="#7DCEA0" stroke-miterlimit="10" width="82" height="7"/>
	
		<rect id="_x36_5" x="458.5" y="333.5" display="none" fill="#7DCEA0" stroke="#7DCEA0" stroke-miterlimit="10" width="82" height="7"/>
	
		<rect id="_x36_6" x="458.5" y="326.5" display="none" fill="#7DCEA0" stroke="#7DCEA0" stroke-miterlimit="10" width="82" height="7"/>
	
		<rect id="_x36_7" x="458.5" y="319.5" display="none" fill="#7DCEA0" stroke="#7DCEA0" stroke-miterlimit="10" width="82" height="7"/>
	
		<rect id="_x36_8" x="458.5" y="312.5" display="none" fill="#7DCEA0" stroke="#7DCEA0" stroke-miterlimit="10" width="82" height="7"/>
	
		<rect id="_x36_9" x="458.5" y="305.5" display="none" fill="#7DCEA0" stroke="#7DCEA0" stroke-miterlimit="10" width="82" height="7"/>
	
		<rect id="_x37_0" x="458.5" y="298.5" display="none" fill="#7DCEA0" stroke="#7DCEA0" stroke-miterlimit="10" width="82" height="7"/>
	
		<rect id="_x37_1" x="458.5" y="291.5" display="none" fill="#F7DC6F" stroke="#F7DC6F" stroke-miterlimit="10" width="82" height="7"/>
	
		<rect id="_x37_2" x="458.5" y="284.5" display="none" fill="#F7DC6F" stroke="#F7DC6F" stroke-miterlimit="10" width="82" height="7"/>
	
		<rect id="_x37_3" x="458.5" y="277.5" display="none" fill="#F7DC6F" stroke="#F7DC6F" stroke-miterlimit="10" width="82" height="7"/>
	
		<rect id="_x37_4" x="458.5" y="270.5" display="none" fill="#F7DC6F" stroke="#F7DC6F" stroke-miterlimit="10" width="82" height="7"/>
	
		<rect id="_x37_5" x="458.5" y="263.5" display="none" fill="#F7DC6F" stroke="#F7DC6F" stroke-miterlimit="10" width="82" height="7"/>
	
		<rect id="_x37_6" x="458.5" y="256.5" display="none" fill="#F7DC6F" stroke="#F7DC6F" stroke-miterlimit="10" width="82" height="7"/>
	
		<rect id="_x37_7" x="458.5" y="249.5" display="none" fill="#F7DC6F" stroke="#F7DC6F" stroke-miterlimit="10" width="82" height="7"/>
	
		<rect id="_x37_8" x="458.5" y="242.5" display="none" fill="#F7DC6F" stroke="#F7DC6F" stroke-miterlimit="10" width="82" height="7"/>
	
		<rect id="_x37_9" x="458.5" y="235.5" display="none" fill="#F7DC6F" stroke="#F7DC6F" stroke-miterlimit="10" width="82" height="7"/>
	
		<rect id="_x38_0" x="458.5" y="228.5" display="none" fill="#F7DC6F" stroke="#F7DC6F" stroke-miterlimit="10" width="82" height="7"/>
	
		<rect id="_x38_1" x="458.5" y="221.5" display="none" fill="#F7DC6F" stroke="#F7DC6F" stroke-miterlimit="10" width="82" height="7"/>
	
		<rect id="_x38_2" x="458.5" y="214.5" display="none" fill="#F7DC6F" stroke="#F7DC6F" stroke-miterlimit="10" width="82" height="7"/>
	
		<rect id="_x38_3" x="458.5" y="207.5" display="none" fill="#F7DC6F" stroke="#F7DC6F" stroke-miterlimit="10" width="82" height="7"/>
	
		<rect id="_x38_4" x="458.5" y="200.5" display="none" fill="#F7DC6F" stroke="#F7DC6F" stroke-miterlimit="10" width="82" height="7"/>
	
		<rect id="_x38_5" x="458.5" y="193.5" display="none" fill="#F7DC6F" stroke="#F7DC6F" stroke-miterlimit="10" width="82" height="7"/>
	
		<rect id="_x38_6" x="458.5" y="186.5" display="none" fill="#D98880" stroke="#D98880" stroke-miterlimit="10" width="82" height="7"/>
	
		<rect id="_x38_7" x="458.5" y="179.5" display="none" fill="#D98880" stroke="#D98880" stroke-miterlimit="10" width="82" height="7"/>
	
		<rect id="_x38_8" x="458.5" y="172.5" display="none" fill="#D98880" stroke="#D98880" stroke-miterlimit="10" width="82" height="7"/>
	
		<rect id="_x38_9" x="458.5" y="165.5" display="none" fill="#D98880" stroke="#D98880" stroke-miterlimit="10" width="82" height="7"/>
	
		<rect id="_x39_0" x="458.5" y="158.5" display="none" fill="#D98880" stroke="#D98880" stroke-miterlimit="10" width="82" height="7"/>
	
		<rect id="_x39_1" x="458.5" y="151.5" display="none" fill="#D98880" stroke="#D98880" stroke-miterlimit="10" width="82" height="7"/>
	
		<rect id="_x39_2" x="458.5" y="144.5" display="none" fill="#D98880" stroke="#D98880" stroke-miterlimit="10" width="82" height="7"/>
	
		<rect id="_x39_3" x="458.5" y="137.5" display="none" fill="#D98880" stroke="#D98880" stroke-miterlimit="10" width="82" height="7"/>
	
		<rect id="_x39_4" x="458.5" y="130.5" display="none" fill="#D98880" stroke="#D98880" stroke-miterlimit="10" width="82" height="7"/>
	<path id="_x39_5_1_" display="none" fill="#D98880" stroke="#D98880" stroke-miterlimit="10" d="M458.945,123.5
		c-0.29,1.967-0.445,3.978-0.445,6.025v0.975h82v-0.975c0-2.047-0.155-4.059-0.445-6.025H458.945z"/>
	<path id="_x39_6_1_" display="none" fill="#D98880" stroke="#D98880" stroke-miterlimit="10" d="M460.625,116.5
		c-0.755,2.254-1.326,4.591-1.68,7h81.11c-0.355-2.409-0.926-4.746-1.682-7H460.625z"/>
	<path id="_x39_7_1_" display="none" fill="#D98880" stroke="#D98880" stroke-miterlimit="10" d="M463.726,109.5
		c-1.243,2.214-2.282,4.556-3.101,7h77.748c-0.819-2.444-1.859-4.786-3.103-7H463.726z"/>
	<path id="_x39_8_1_" display="none" fill="#D98880" stroke="#D98880" stroke-miterlimit="10" d="M468.682,102.5
		c-1.885,2.147-3.548,4.491-4.956,7h71.544c-1.408-2.509-3.073-4.853-4.958-7H468.682z"/>
	<path id="_x39_9_1_" display="none" fill="#D98880" stroke="#D98880" stroke-miterlimit="10" d="M522.373,95.5H476.62
		c-2.942,1.982-5.605,4.342-7.938,7h61.631C527.979,99.842,525.314,97.482,522.373,95.5z"/>
	<path id="_x31_00" display="none" fill="#D98880" stroke="#D98880" stroke-miterlimit="10" d="M476.62,95.5h45.753
		c-6.536-4.403-14.406-6.975-22.873-6.975C491.027,88.525,483.155,91.097,476.62,95.5z"/>
</g>
</svg>
