<?xml version="1.0" encoding="utf-8"?>
<!-- Generator: Adobe Illustrator 16.0.0, SVG Export Plug-In . SVG Version: 6.00 Build 0)  -->
<!DOCTYPE svg PUBLIC "-//W3C//DTD SVG 1.1//EN" "http://www.w3.org/Graphics/SVG/1.1/DTD/svg11.dtd">
<svg version="1.1" id="Capa_1" xmlns="http://www.w3.org/2000/svg" xmlns:xlink="http://www.w3.org/1999/xlink" x="0px" y="0px"
	 width="250px" height="250px" viewBox="0 0 250 250" enable-background="new 0 0 250 250" xml:space="preserve">
<g>
	<path fill="#AFAFAF" d="M125,2.5C57.338,2.5,2.5,57.338,2.5,125S57.338,247.5,125,247.5S247.5,192.662,247.5,125
		S192.662,2.5,125,2.5z M166.009,94.897h-6.477v12.904c0,5.447-2.982,10.503-5.806,13.434c-0.511,0.467-21.597,20.451-21.597,20.451
		c-0.86,1.067-1.483,2.711-1.5,4.227v33.337c7.569,2.424,12.92,9.569,12.92,17.688c0,10.207-8.333,18.551-18.573,18.551
		c-10.241,0-18.563-8.344-18.563-18.551c0-8.119,5.347-15.266,12.912-17.688v-9.269c-0.028-1.461-0.63-3.095-1.727-4.442
		c-0.024,0-20.832-19.698-21.262-20.099l-1.22-1.123l0.052-0.176c-2.46-3.016-4.769-7.449-4.769-12.203v-24.145
		c-3.912-2.066-6.46-6.157-6.46-10.651c0-6.671,5.439-12.103,12.11-12.103c6.671,0,12.11,5.431,12.11,12.103
		c0,4.494-2.556,8.585-6.46,10.651v24.337c0.032,1.451,0.646,3.087,1.731,4.427l15.896,15.025V61.146h-9.71L125,34.521
		l15.359,26.625h-9.713v66.331l16.133-15.289c0.854-1.081,1.477-2.719,1.508-4.238V94.898h-6.46V70.709h24.198v24.189
		L166.009,94.897L166.009,94.897z"/>
</g>
</svg>
